<?xml version="1.0" encoding="iso-8859-1"?>
<!-- Generator: Adobe Illustrator 19.0.0, SVG Export Plug-In . SVG Version: 6.00 Build 0)  -->
<svg version="1.1" id="Layer_1" xmlns="http://www.w3.org/2000/svg" xmlns:xlink="http://www.w3.org/1999/xlink" x="0px" y="0px"
	 viewBox="0 0 512 512" style="enable-background:new 0 0 512 512;" xml:space="preserve">
<path style="fill:#57565C;" d="M440.05,130.587c-3.396-3.698-8.186-5.802-13.206-5.802H85.156c-5.02,0-9.81,2.104-13.206,5.802
	c-3.396,3.698-5.087,8.648-4.661,13.651l29.886,351.35c0.789,9.282,8.552,16.412,17.867,16.412h281.916
	c9.315,0,17.078-7.131,17.867-16.412l29.886-351.35C445.137,139.236,443.447,134.285,440.05,130.587z"/>
<path style="fill:#3E3D42;" d="M440.05,130.587c-3.396-3.698-8.186-5.802-13.206-5.802H256v387.213h140.958
	c9.315,0,17.078-7.131,17.867-16.412l29.886-351.35C445.137,139.236,443.447,134.285,440.05,130.587z"/>
<g>
	<path style="fill:#787680;" d="M444.165,102.209c-10.545-39.32-46.341-66.781-87.05-66.781H154.885
		c-40.709,0-76.506,27.462-87.05,66.782c-1.444,5.384-0.301,11.134,3.093,15.559c3.394,4.424,8.652,7.017,14.227,7.017h341.689
		c5.576,0,10.834-2.594,14.227-7.017C444.464,113.346,445.609,107.595,444.165,102.209z"/>
	<path style="fill:#787680;" d="M256,453.476c-9.903,0-17.932-8.029-17.932-17.932V200.039c0-9.903,8.029-17.932,17.932-17.932
		c9.903,0,17.932,8.029,17.932,17.932v235.505C273.932,445.448,265.903,453.476,256,453.476z"/>
	<path style="fill:#787680;" d="M169.906,453.478c-9.167,0-16.986-6.993-17.836-16.301l-21.518-235.505
		c-0.9-9.863,6.363-18.588,16.226-19.49c9.859-0.9,18.588,6.362,19.49,16.225l21.518,235.505c0.9,9.863-6.363,18.588-16.226,19.49
		C171.004,453.452,170.452,453.478,169.906,453.478z"/>
</g>
<g>
	<path style="fill:#57565C;" d="M342.093,453.478c-0.548,0-1.097-0.025-1.652-0.075c-9.863-0.901-17.127-9.627-16.226-19.49
		l21.518-235.505c0.901-9.863,9.634-17.138,19.49-16.225c9.863,0.901,17.127,9.627,16.226,19.49l-21.518,235.505
		C359.08,446.483,351.26,453.478,342.093,453.478z"/>
	<path style="fill:#57565C;" d="M256,182.108v271.369c9.903,0,17.932-8.029,17.932-17.932V200.039
		C273.932,190.136,265.903,182.108,256,182.108z"/>
	<path style="fill:#57565C;" d="M444.165,102.209c-10.545-39.32-46.341-66.781-87.05-66.781H256v89.358h170.844
		c5.576,0,10.834-2.594,14.227-7.017C444.464,113.346,445.609,107.595,444.165,102.209z"/>
	<path style="fill:#57565C;" d="M295.848,0h-79.698c-9.903,0-17.932,8.029-17.932,17.932s8.029,17.932,17.932,17.932h79.698
		c9.903,0,17.932-8.029,17.932-17.932S305.751,0,295.848,0z"/>
</g>
<path style="fill:#3E3D42;" d="M295.848,0H256v35.864h39.848c9.903,0,17.932-8.029,17.932-17.932S305.751,0,295.848,0z"/>
<g>
</g>
<g>
</g>
<g>
</g>
<g>
</g>
<g>
</g>
<g>
</g>
<g>
</g>
<g>
</g>
<g>
</g>
<g>
</g>
<g>
</g>
<g>
</g>
<g>
</g>
<g>
</g>
<g>
</g>
</svg>
