<?xml version="1.0" encoding="iso-8859-1"?>
<!-- Generator: Adobe Illustrator 19.0.0, SVG Export Plug-In . SVG Version: 6.00 Build 0)  -->
<svg version="1.1" id="Layer_1" xmlns="http://www.w3.org/2000/svg" xmlns:xlink="http://www.w3.org/1999/xlink" x="0px" y="0px"
	 viewBox="0 0 470 470" style="enable-background:new 0 0 470 470;" xml:space="preserve">
<g>
	<polygon style="fill:#46F8FF;" points="358.284,119.216 358.284,7.5 300,7.5 300,206.716 328.284,235 300,263.284 300,462.5 
		470,462.5 470,119.216 	"/>
	<polygon style="fill:#9BFBFF;" points="254.142,309.142 225.858,280.858 251.716,255 130,255 130,462.5 300,462.5 300,263.284 	"/>
	<polygon style="fill:#9BFBFF;" points="225.858,189.142 254.142,160.858 300,206.716 300,7.5 130,7.5 130,215 251.716,215 	"/>
	<polygon style="fill:#00D7DF;" points="470,119.216 358.284,7.5 358.284,119.216 	"/>
	<polygon style="fill:#2488FF;" points="225.858,280.858 254.142,309.142 328.284,235 254.142,160.858 225.858,189.142 251.716,215 
		0,215 0,255 251.716,255 	"/>
</g>
<g>
</g>
<g>
</g>
<g>
</g>
<g>
</g>
<g>
</g>
<g>
</g>
<g>
</g>
<g>
</g>
<g>
</g>
<g>
</g>
<g>
</g>
<g>
</g>
<g>
</g>
<g>
</g>
<g>
</g>
</svg>
