<?xml version="1.0" encoding="iso-8859-1"?>
<!-- Generator: Adobe Illustrator 19.0.0, SVG Export Plug-In . SVG Version: 6.00 Build 0)  -->
<svg version="1.1" id="Layer_1" xmlns="http://www.w3.org/2000/svg" xmlns:xlink="http://www.w3.org/1999/xlink" x="0px" y="0px"
	 viewBox="0 0 512.01 512.01" style="enable-background:new 0 0 512.01 512.01;" xml:space="preserve">
<rect x="143.672" y="290.721" transform="matrix(-0.7071 -0.7071 0.7071 -0.7071 14.0209 718.2977)" style="fill:#4C5870;" width="24.205" height="131.047"/>
<path style="fill:#A2A9AF;" d="M181.439,330.577c-36.576-36.576-56.717-85.202-56.717-136.927
	C124.723,86.874,211.592,0.007,318.366,0.006c51.725,0,100.352,20.143,136.927,56.717s56.716,85.202,56.717,136.927
	c-0.001,106.775-86.87,193.643-193.644,193.644C266.641,387.293,218.013,367.15,181.439,330.577z"/>
<path style="fill:#BEC8D6;" d="M421.06,90.953h-52.104V57.477c-15.754-5.855-32.797-9.061-50.591-9.061
	c-80.21,0-145.233,65.023-145.233,145.233c0,17.793,3.206,34.838,9.061,50.592h33.476v52.104
	c26.282,26.282,62.591,42.538,102.696,42.538c80.21,0,145.233-65.023,145.233-145.233
	C463.599,153.544,447.343,117.235,421.06,90.953z"/>
<path style="fill:#FFFFFF;" d="M368.958,57.478L182.194,244.241c7.343,19.754,18.855,37.482,33.476,52.104L421.061,90.953
	C406.44,76.332,388.712,64.821,368.958,57.478z"/>
<rect x="-6.28" y="414.202" transform="matrix(-0.7071 0.7071 -0.7071 -0.7071 435.6394 696.3658)" style="fill:#A2A9AF;" width="159.755" height="48.411"/>
<g>
</g>
<g>
</g>
<g>
</g>
<g>
</g>
<g>
</g>
<g>
</g>
<g>
</g>
<g>
</g>
<g>
</g>
<g>
</g>
<g>
</g>
<g>
</g>
<g>
</g>
<g>
</g>
<g>
</g>
</svg>
