<?xml version="1.0" encoding="iso-8859-1"?>
<!DOCTYPE svg PUBLIC "-//W3C//DTD SVG 1.1//EN" "http://www.w3.org/Graphics/SVG/1.1/DTD/svg11.dtd">
<svg xmlns="http://www.w3.org/2000/svg" xmlns:xlink="http://www.w3.org/1999/xlink" version="1.1" viewBox="0 0 243.176 243.176" enable-background="new 0 0 243.176 243.176" width="512px" height="512px">
  <g>
    <path d="m229.374,185.229v-9.636c0-8.779-6.92-15.953-15.59-16.404v-78.573h9.59c3.313,0 6-2.686 6-6v-25.804c0-2.817-1.96-5.255-4.711-5.86l-101.786-22.388c-0.85-0.187-1.729-0.187-2.578,0l-101.786,22.389c-2.751,0.605-4.711,3.043-4.711,5.86v25.803c0,3.314 2.687,6 6,6h9.59v78.574c-8.67,0.45-15.59,7.624-15.59,16.404v9.636c-7.835,1.411-13.802,8.264-13.802,16.499v15.023c0,3.314 2.687,6 6,6h13.802 203.572 13.802c3.313,0 6-2.686 6-6v-15.023c0-8.235-5.968-15.088-13.802-16.5zm-203.572-9.636c7.10543e-15-2.452 1.995-4.447 4.447-4.447h182.678c2.452,0 4.447,1.995 4.447,4.447v9.355h-191.572v-9.355zm32.67-16.447h-17.08v-76.781h17.08v76.781zm66.461-78.53v78.53h-6.689v-78.53h6.689zm29.081,78.53h-17.081v-76.781h17.081v76.781zm47.77,0h-17.08v-76.781h17.08v76.781zm-95.541-76.781v76.781h-17.081v-76.781h17.081zm-94.243,119.364c0-2.636 2.145-4.78 4.78-4.78h3.021 6 191.572 6 3.021c2.636,0 4.78,2.145 4.78,4.78v9.023h-13.802-191.57-13.802v-9.023zm160.704-42.583h-6.69v-78.53h6.69v78.53zm-146.902-105.51l95.786-21.069 95.786,21.069v14.979h-191.572v-14.979zm51.36,26.98v78.53h-6.69v-78.53h6.69z" fill="#cccccc"/>
  </g>
</svg>
