<?xml version="1.0" encoding="iso-8859-1"?>
<!-- Generator: Adobe Illustrator 19.0.0, SVG Export Plug-In . SVG Version: 6.00 Build 0)  -->
<svg version="1.1" id="Layer_1" xmlns="http://www.w3.org/2000/svg" xmlns:xlink="http://www.w3.org/1999/xlink" x="0px" y="0px"
	 viewBox="0 0 512.001 512.001" style="enable-background:new 0 0 512.001 512.001;" xml:space="preserve">
<path style="fill:#61ACD2;" d="M398.012,135.449c-1.183,14.341-2.378,34.072-3.561,48.413
	c-7.423,89.661-14.836,179.311-22.259,268.972H139.809c-7.423-89.661-14.836-179.311-22.259-268.972
	c-1.183-14.341-2.378-34.072-3.561-48.413L398.012,135.449L398.012,135.449z"/>
<path style="fill:#D1D5D8;" d="M353.611,501.242H158.388c-10.261,0-18.58-8.318-18.58-18.58v-29.833h232.383v29.833
	C372.191,492.924,363.872,501.242,353.611,501.242z"/>
<path style="fill:#F4A026;" d="M444.273,126.917v30.027c0,14.868-12.049,26.918-26.918,26.918h-22.905
	c1.183-14.341,2.378-34.072,3.561-48.413H113.989c1.183,14.341,2.378,34.072,3.561,48.413H94.645
	c-14.868,0-26.918-12.049-26.918-26.918v-30.027c0-11.318,7.09-21.377,17.708-25.293c41.549-15.363,84.669-24.927,128.165-28.693
	c28.209-2.431,56.589-2.431,84.798,0c43.496,3.765,86.616,13.33,128.165,28.693C437.184,105.54,444.273,115.6,444.273,126.917z"/>
<path style="fill:#4A8EB9;" d="M341.53,135.449c-0.712,14.341-1.432,34.072-2.145,48.413
	c-4.471,89.661-8.935,179.311-13.406,268.972H186.021c-4.471-89.661-8.935-179.311-13.406-268.972
	c-0.712-14.341-1.432-34.072-2.145-48.413L341.53,135.449L341.53,135.449z"/>
<path style="fill:#3E81C8;" d="M285.586,135.449c-0.246,14.341-0.495,34.072-0.742,48.413
	c-1.547,89.661-3.091,179.311-4.637,268.972h-48.413c-1.547-89.661-3.091-179.311-4.637-268.972
	c-0.246-14.341-0.495-34.072-0.742-48.413L285.586,135.449L285.586,135.449z"/>
<path style="fill:#EB7830;" d="M398.012,135.449c-1.183,14.341-2.378,34.072-3.561,48.413H117.55
	c-1.183-14.341-2.378-34.072-3.561-48.413C113.989,135.449,398.012,135.449,398.012,135.449z"/>
<path style="fill:#231F20;" d="M430.296,91.534c-38.203-14.127-77.994-23.537-118.461-28.062c0.301-2.365,0.465-4.757,0.465-7.173
	C312.3,25.257,287.044,0,256.001,0s-56.299,25.257-56.299,56.299c0,2.415,0.164,4.808,0.465,7.173
	C159.702,67.997,119.91,77.407,81.715,91.53c-14.8,5.458-24.744,19.679-24.744,35.388v30.027c0,20.776,16.902,37.677,37.676,37.677
	h12.999l21.405,258.65v29.391c0,16.176,13.161,29.338,29.338,29.338h195.223c16.177,0,29.338-13.161,29.338-29.338v-29.379
	l21.405-258.663h12.999c20.775,0,37.676-16.902,37.676-37.677v-30.027C455.032,111.209,445.087,96.987,430.296,91.534z
	 M256.001,21.517c19.179,0,34.782,15.603,34.782,34.782c0,1.765-0.13,3.509-0.387,5.224l0.022,0.018
	c-22.878-1.561-45.954-1.561-68.833,0l0.022-0.018c-0.257-1.716-0.387-3.46-0.387-5.224
	C221.218,37.12,236.821,21.517,256.001,21.517z M129.236,194.62h33.144l12.333,247.45h-24.999L129.236,194.62z M291.153,442.07
	l4.266-247.45h32.658l-12.333,247.45H291.153z M269.633,442.07h-27.264l-4.267-247.45h35.797L269.633,442.07z M216.582,194.62
	l4.267,247.45h-24.591l-12.335-247.45H216.582z M362.288,442.07h-24.999l12.332-247.45h33.145L362.288,442.07z M384.491,173.103
	H127.509c-0.265-3.6-1.605-22.746-1.906-26.896h260.793C386.095,150.365,384.675,170.596,384.491,173.103z M353.611,490.483H158.388
	c-4.312,0-7.821-3.508-7.821-7.821v-19.069h210.866v19.07C361.432,486.976,357.924,490.483,353.611,490.483z M433.515,156.944
	c0,8.91-7.249,16.16-16.159,16.16h-11.29c0.004-0.059,0.009-0.122,0.013-0.181c0.297-4.101,0.594-8.344,0.884-12.517
	c0.582-8.342,1.185-16.967,1.771-24.071c0.246-2.996-0.771-5.96-2.808-8.173c-2.037-2.212-4.907-3.471-7.914-3.471H113.989
	c-3.007,0-5.876,1.259-7.914,3.471c-2.038,2.213-3.055,5.176-2.808,8.173c0.585,7.098,1.188,15.716,1.769,24.052
	c0.295,4.222,0.594,8.514,0.895,12.661c0.001,0.019,0.003,0.039,0.004,0.057h-11.29c-8.91,0-16.159-7.249-16.159-16.16v-30.027
	c0-6.737,4.288-12.845,10.681-15.203c40.33-14.912,82.509-24.355,125.359-28.064c27.521-2.371,55.429-2.373,82.947,0
	c42.853,3.71,85.032,13.152,125.37,28.069c6.384,2.354,10.672,8.462,10.672,15.198L433.515,156.944L433.515,156.944z"/>
<g>
</g>
<g>
</g>
<g>
</g>
<g>
</g>
<g>
</g>
<g>
</g>
<g>
</g>
<g>
</g>
<g>
</g>
<g>
</g>
<g>
</g>
<g>
</g>
<g>
</g>
<g>
</g>
<g>
</g>
</svg>
